<svg xmlns="http://www.w3.org/2000/svg" xmlns:xlink="http://www.w3.org/1999/xlink" width="500" zoomAndPan="magnify" viewBox="0 0 375 374.999991" height="500" preserveAspectRatio="xMidYMid meet" version="1.0"><defs><clipPath id="8be10df9a5"><path d="M 32 42.050781 L 309 42.050781 L 309 332 L 32 332 Z M 32 42.050781 " clip-rule="nonzero"/></clipPath><clipPath id="a6c0519bfe"><path d="M 66 42.050781 L 287 42.050781 L 287 273 L 66 273 Z M 66 42.050781 " clip-rule="nonzero"/></clipPath></defs><rect x="-37.5" width="450" fill="#ffffff" y="-37.499999" height="449.999989" fill-opacity="1"/><rect x="-37.5" width="450" fill="#d63e00" y="-37.499999" height="449.999989" fill-opacity="1"/><path fill="#ffffff" d="M 337.367188 326.183594 C 337.191406 326.351562 337.007812 326.511719 336.820312 326.664062 C 340.019531 323.109375 339.996094 317.628906 336.640625 314.101562 C 333.289062 310.570312 327.820312 310.265625 324.105469 313.285156 C 324.265625 313.105469 324.433594 312.929688 324.609375 312.757812 C 328.316406 309.234375 334.179688 309.386719 337.703125 313.089844 C 341.226562 316.800781 341.078125 322.660156 337.367188 326.183594 Z M 338.828125 311.359375 C 336.082031 308.46875 332.242188 307.25 328.574219 307.726562 L 310.351562 286.011719 L 291.363281 266.027344 L 293.359375 264.128906 L 289.71875 260.292969 L 281.804688 268.773438 L 272.929688 276.246094 L 276.574219 280.078125 L 278.574219 278.179688 L 297.5625 298.164062 L 318.324219 317.464844 C 317.664062 321.109375 318.683594 325.003906 321.425781 327.890625 C 325.996094 332.695312 333.589844 332.890625 338.394531 328.324219 C 343.199219 323.757812 343.390625 316.164062 338.828125 311.359375 " fill-opacity="1" fill-rule="nonzero"/><path fill="#ffffff" d="M 307.027344 229.523438 C 308.269531 228.34375 310.234375 228.390625 311.414062 229.636719 C 312.59375 230.875 312.542969 232.839844 311.300781 234.019531 C 311.1875 234.125 311.066406 234.222656 310.941406 234.3125 C 311.867188 233.121094 311.8125 231.402344 310.742188 230.273438 C 309.667969 229.144531 307.953125 229 306.71875 229.867188 C 306.8125 229.746094 306.914062 229.632812 307.027344 229.523438 Z M 310.746094 236.152344 C 310.933594 235.945312 311.117188 235.738281 311.292969 235.523438 L 311.972656 234.761719 L 311.96875 234.757812 C 313.488281 233.078125 313.351562 230.40625 311.5 228.902344 C 310.085938 227.753906 308.015625 227.714844 306.558594 228.808594 C 305.191406 229.832031 304.679688 231.488281 305.035156 232.988281 C 305.351562 234.324219 304.863281 235.714844 303.824219 236.609375 C 298.675781 241.039062 285.816406 252.136719 282.4375 255.054688 C 281.898438 255.519531 281.238281 255.820312 280.535156 255.921875 L 270.914062 257.316406 L 269.035156 266.851562 C 268.898438 267.550781 268.566406 268.195312 268.074219 268.707031 C 264.984375 271.933594 253.246094 284.207031 248.558594 289.125 C 247.613281 290.117188 246.199219 290.535156 244.882812 290.148438 C 243.402344 289.71875 241.71875 290.148438 240.628906 291.457031 C 239.464844 292.859375 239.398438 294.929688 240.472656 296.398438 C 241.878906 298.324219 244.539062 298.597656 246.296875 297.167969 L 247.097656 296.53125 C 247.320312 296.363281 247.535156 296.191406 247.75 296.015625 L 281.042969 267.972656 L 310.746094 236.152344 " fill-opacity="1" fill-rule="nonzero"/><g clip-path="url(#8be10df9a5)"><path fill="#ffffff" d="M 306.496094 42.636719 L 275.871094 60.21875 C 274.40625 61.058594 273.0625 62.09375 271.878906 63.296875 L 190.15625 146.234375 L 192.648438 148.761719 L 273.960938 66.039062 L 301.625 49.484375 L 200.09375 156.320312 L 210.046875 166.421875 L 289.34375 79.894531 C 290.484375 78.648438 291.453125 77.253906 292.214844 75.75 L 308.214844 44.269531 C 308.773438 43.171875 307.5625 42.023438 306.496094 42.636719 Z M 38.394531 314.101562 C 35.039062 317.628906 35.015625 323.109375 38.21875 326.664062 C 38.03125 326.511719 37.847656 326.351562 37.667969 326.183594 C 33.960938 322.660156 33.8125 316.800781 37.335938 313.089844 C 40.855469 309.386719 46.71875 309.234375 50.425781 312.757812 C 50.605469 312.929688 50.773438 313.105469 50.9375 313.285156 C 47.21875 310.265625 41.746094 310.570312 38.394531 314.101562 Z M 85.320312 260.292969 L 81.675781 264.128906 L 83.675781 266.027344 L 64.683594 286.011719 L 46.464844 307.726562 C 42.792969 307.25 38.957031 308.46875 36.210938 311.359375 C 31.644531 316.164062 31.839844 323.757812 36.644531 328.324219 C 41.449219 332.890625 49.042969 332.695312 53.609375 327.890625 C 56.351562 325.003906 57.375 321.109375 56.714844 317.464844 L 77.472656 298.160156 L 96.464844 278.179688 L 98.464844 280.078125 L 102.105469 276.246094 L 93.234375 268.773438 Z M 64.296875 230.273438 C 63.226562 231.402344 63.167969 233.121094 64.097656 234.3125 C 63.972656 234.222656 63.851562 234.125 63.734375 234.019531 C 62.496094 232.839844 62.445312 230.875 63.625 229.636719 C 64.804688 228.390625 66.765625 228.34375 68.007812 229.523438 C 68.125 229.632812 68.226562 229.746094 68.320312 229.867188 C 67.085938 229 65.367188 229.144531 64.296875 230.273438 Z M 130.152344 290.148438 C 128.839844 290.535156 127.421875 290.117188 126.480469 289.125 C 121.792969 284.207031 110.054688 271.933594 106.964844 268.707031 C 106.476562 268.195312 106.140625 267.550781 106.003906 266.851562 L 104.121094 257.316406 L 94.503906 255.921875 C 93.796875 255.820312 93.136719 255.519531 92.597656 255.054688 C 89.21875 252.136719 76.363281 241.039062 71.214844 236.609375 C 70.175781 235.714844 69.683594 234.324219 70.003906 232.988281 C 70.359375 231.488281 69.84375 229.832031 68.480469 228.808594 C 67.023438 227.714844 64.953125 227.753906 63.535156 228.902344 C 61.6875 230.40625 61.550781 233.078125 63.070312 234.757812 L 63.066406 234.761719 L 63.742188 235.523438 C 63.921875 235.738281 64.101562 235.945312 64.292969 236.152344 L 93.996094 267.972656 L 127.289062 296.015625 C 127.5 296.191406 127.71875 296.363281 127.941406 296.53125 L 128.738281 297.167969 L 128.742188 297.167969 C 130.5 298.597656 133.15625 298.324219 134.566406 296.398438 C 135.640625 294.929688 135.574219 292.859375 134.410156 291.457031 C 133.316406 290.148438 131.632812 289.71875 130.152344 290.148438 Z M 109.390625 251.769531 L 108.402344 252.808594 L 95.941406 251.519531 L 93.726562 249.410156 L 167.324219 174.53125 L 164.890625 171.875 L 88.71875 249.179688 C 90.972656 251.125 92.839844 252.734375 93.851562 253.605469 C 94.113281 253.835938 94.433594 253.980469 94.777344 254.03125 L 104.398438 255.421875 L 104.507812 255.457031 L 104.65625 255.480469 C 104.730469 255.5 104.792969 255.535156 104.859375 255.566406 L 105.007812 255.628906 C 105.167969 255.710938 105.3125 255.808594 105.4375 255.925781 C 105.566406 256.050781 105.671875 256.191406 105.761719 256.34375 L 105.832031 256.492188 C 105.867188 256.554688 105.90625 256.617188 105.929688 256.6875 L 105.957031 256.832031 L 106 256.945312 L 107.875 266.480469 C 107.945312 266.824219 108.109375 267.136719 108.351562 267.386719 C 109.273438 268.351562 110.976562 270.132812 113.03125 272.28125 L 184.96875 193.785156 L 174.917969 182.816406 L 109.390625 251.769531 " fill-opacity="1" fill-rule="nonzero"/></g><g clip-path="url(#a6c0519bfe)"><path fill="#ffffff" d="M 73.410156 49.484375 L 101.078125 66.039062 L 281.3125 249.410156 L 279.09375 251.519531 L 266.636719 252.808594 L 265.648438 251.769531 Z M 266.691406 267.386719 C 266.929688 267.136719 267.09375 266.824219 267.160156 266.480469 L 269.039062 256.945312 L 269.078125 256.832031 L 269.109375 256.6875 C 269.132812 256.617188 269.171875 256.554688 269.203125 256.492188 L 269.277344 256.34375 C 269.367188 256.191406 269.46875 256.050781 269.597656 255.925781 C 269.722656 255.808594 269.875 255.710938 270.027344 255.628906 L 270.179688 255.566406 C 270.246094 255.535156 270.3125 255.5 270.382812 255.480469 L 270.527344 255.457031 L 270.640625 255.421875 L 280.261719 254.03125 C 280.605469 253.980469 280.925781 253.835938 281.1875 253.605469 C 282.199219 252.734375 284.066406 251.125 286.316406 249.179688 L 103.160156 63.296875 C 101.972656 62.09375 100.628906 61.058594 99.167969 60.21875 L 68.542969 42.636719 C 67.476562 42.023438 66.265625 43.171875 66.824219 44.269531 L 82.820312 75.75 C 83.585938 77.253906 84.550781 78.648438 85.695312 79.894531 L 262.003906 272.28125 C 264.0625 270.132812 265.765625 268.351562 266.691406 267.386719 " fill-opacity="1" fill-rule="nonzero"/></g></svg>