<svg xmlns="http://www.w3.org/2000/svg" xmlns:xlink="http://www.w3.org/1999/xlink" width="500" zoomAndPan="magnify" viewBox="0 0 375 374.999991" height="500" preserveAspectRatio="xMidYMid meet" version="1.0"><defs><filter x="0%" y="0%" width="100%" height="100%" id="bf30ddab8d"><feColorMatrix values="0 0 0 0 1 0 0 0 0 1 0 0 0 0 1 0 0 0 1 0" color-interpolation-filters="sRGB"/></filter><mask id="f1a03e7d11"><g filter="url(#bf30ddab8d)"><rect x="-37.5" width="450" fill="#000000" y="-37.499999" height="449.999989" fill-opacity="0.8"/></g></mask><clipPath id="cbca4495d6"><path d="M 0.398438 0.800781 L 30.066406 0.800781 L 30.066406 166.058594 L 0.398438 166.058594 Z M 0.398438 0.800781 " clip-rule="nonzero"/></clipPath><clipPath id="5f60a8f9a9"><rect x="0" width="31" y="0" height="167"/></clipPath><mask id="5850e3c362"><g filter="url(#bf30ddab8d)"><rect x="-37.5" width="450" fill="#000000" y="-37.499999" height="449.999989" fill-opacity="0.8"/></g></mask><clipPath id="5974a2cbca"><path d="M 0.394531 0.398438 L 147.5 0.398438 L 147.5 30.066406 L 0.394531 30.066406 Z M 0.394531 0.398438 " clip-rule="nonzero"/></clipPath><clipPath id="e15bbe2fe4"><rect x="0" width="148" y="0" height="31"/></clipPath><mask id="380589af9b"><g filter="url(#bf30ddab8d)"><rect x="-37.5" width="450" fill="#000000" y="-37.499999" height="449.999989" fill-opacity="0.8"/></g></mask><clipPath id="8ece8842d9"><path d="M 0.832031 0.59375 L 30.503906 0.59375 L 30.503906 98.0625 L 0.832031 98.0625 Z M 0.832031 0.59375 " clip-rule="nonzero"/></clipPath><clipPath id="01d59c999f"><rect x="0" width="31" y="0" height="99"/></clipPath><mask id="81018f92b7"><g filter="url(#bf30ddab8d)"><rect x="-37.5" width="450" fill="#000000" y="-37.499999" height="449.999989" fill-opacity="0.8"/></g></mask><clipPath id="747ad0007a"><path d="M 0.394531 0.804688 L 147.5 0.804688 L 147.5 30.476562 L 0.394531 30.476562 Z M 0.394531 0.804688 " clip-rule="nonzero"/></clipPath><clipPath id="235d1c0495"><rect x="0" width="148" y="0" height="31"/></clipPath><mask id="4b20c23be3"><g filter="url(#bf30ddab8d)"><rect x="-37.5" width="450" fill="#000000" y="-37.499999" height="449.999989" fill-opacity="0.8"/></g></mask><clipPath id="a4864f78d2"><path d="M 0.503906 0.800781 L 30.175781 0.800781 L 30.175781 166.058594 L 0.503906 166.058594 Z M 0.503906 0.800781 " clip-rule="nonzero"/></clipPath><clipPath id="439b1af981"><rect x="0" width="31" y="0" height="167"/></clipPath><mask id="88789ccdaf"><g filter="url(#bf30ddab8d)"><rect x="-37.5" width="450" fill="#000000" y="-37.499999" height="449.999989" fill-opacity="0.8"/></g></mask><clipPath id="346443d2fc"><path d="M 0.5 0.523438 L 147.605469 0.523438 L 147.605469 30.195312 L 0.5 30.195312 Z M 0.5 0.523438 " clip-rule="nonzero"/></clipPath><clipPath id="8476f91481"><rect x="0" width="148" y="0" height="31"/></clipPath><mask id="2d551d098a"><g filter="url(#bf30ddab8d)"><rect x="-37.5" width="450" fill="#000000" y="-37.499999" height="449.999989" fill-opacity="0.8"/></g></mask><clipPath id="76145c8f5f"><path d="M 0.945312 0.601562 L 74.5 0.601562 L 74.5 30.273438 L 0.945312 30.273438 Z M 0.945312 0.601562 " clip-rule="nonzero"/></clipPath><clipPath id="696bedc6cb"><rect x="0" width="75" y="0" height="31"/></clipPath></defs><rect x="-37.5" width="450" fill="#ffffff" y="-37.499999" height="449.999989" fill-opacity="1"/><rect x="-37.5" width="450" fill="#212121" y="-37.499999" height="449.999989" fill-opacity="1"/><g mask="url(#f1a03e7d11)"><g transform="matrix(1, 0, 0, 1, 40, 104)"><g clip-path="url(#5f60a8f9a9)"><g clip-path="url(#cbca4495d6)"><path fill="#2ecee6" d="M 0.398438 166.058594 L 0.398438 0.785156 L 30.066406 0.785156 L 30.066406 166.058594 Z M 0.398438 166.058594 " fill-opacity="1" fill-rule="nonzero"/></g></g></g></g><g mask="url(#5850e3c362)"><g transform="matrix(1, 0, 0, 1, 40, 240)"><g clip-path="url(#e15bbe2fe4)"><g clip-path="url(#5974a2cbca)"><path fill="#2ecee6" d="M 0.394531 0.398438 L 147.472656 0.398438 L 147.472656 30.066406 L 0.394531 30.066406 Z M 0.394531 0.398438 " fill-opacity="1" fill-rule="nonzero"/></g></g></g></g><g mask="url(#380589af9b)"><g transform="matrix(1, 0, 0, 1, 157, 172)"><g clip-path="url(#01d59c999f)"><g clip-path="url(#8ece8842d9)"><path fill="#2ecee6" d="M 0.832031 98.0625 L 0.832031 0.585938 L 30.503906 0.585938 L 30.503906 98.0625 Z M 0.832031 98.0625 " fill-opacity="1" fill-rule="nonzero"/></g></g></g></g><g mask="url(#81018f92b7)"><g transform="matrix(1, 0, 0, 1, 40, 104)"><g clip-path="url(#235d1c0495)"><g clip-path="url(#747ad0007a)"><path fill="#2ecee6" d="M 0.394531 0.804688 L 147.472656 0.804688 L 147.472656 30.476562 L 0.394531 30.476562 Z M 0.394531 0.804688 " fill-opacity="1" fill-rule="nonzero"/></g></g></g></g><g mask="url(#4b20c23be3)"><g transform="matrix(1, 0, 0, 1, 187, 104)"><g clip-path="url(#439b1af981)"><g clip-path="url(#a4864f78d2)"><path fill="#5271ff" d="M 0.503906 166.058594 L 0.503906 0.785156 L 30.175781 0.785156 L 30.175781 166.058594 Z M 0.503906 166.058594 " fill-opacity="1" fill-rule="nonzero"/></g></g></g></g><g mask="url(#88789ccdaf)"><g transform="matrix(1, 0, 0, 1, 187, 240)"><g clip-path="url(#8476f91481)"><g clip-path="url(#346443d2fc)"><path fill="#5271ff" d="M 0.5 0.523438 L 147.578125 0.523438 L 147.578125 30.195312 L 0.5 30.195312 Z M 0.5 0.523438 " fill-opacity="1" fill-rule="nonzero"/></g></g></g></g><g mask="url(#2d551d098a)"><g transform="matrix(1, 0, 0, 1, 113, 172)"><g clip-path="url(#696bedc6cb)"><g clip-path="url(#76145c8f5f)"><path fill="#2ecee6" d="M 0.945312 0.601562 L 74.542969 0.601562 L 74.542969 30.273438 L 0.945312 30.273438 Z M 0.945312 0.601562 " fill-opacity="1" fill-rule="nonzero"/></g></g></g></g></svg>